<?xml version="1.0" encoding="utf-8"?><svg xml:space="preserve" viewBox="0 0 100 100" y="0" x="0" xmlns="http://www.w3.org/2000/svg" id="圖層_1" version="1.1" width="200px" height="200px" xmlns:xlink="http://www.w3.org/1999/xlink" style="width:100%;height:100%;animation-play-state:paused" ><g class="ldl-scale" style="transform-origin:50% 50% 0px;transform:rotate(0deg) scale(0.8);animation-play-state:paused" ><path fill="#333" d="M86.7 39.6c-.8-1.7-.8-3.7.1-5.4l1.7-3.5c.7-1.5-.3-3.2-1.9-3.4l-8.9-.8c-.7-.1-1.3-.4-1.8-.8-9.5-7.2-21.5-8.7-32.7-5.1l-25.7 5.7c-1.1.3-1.5 1.7-.6 2.4l6.3 5.3c-.9 1-1.7 2.1-2.5 3.2-8.3 11.4-10.8 29.6-7.9 42.1.3 1.4 1.8 2.4 3.2 2.1 16.7-2.8 42.1-3.8 68.9-4.5 6.2-12.2 6.7-26.1 1.8-37.3z" style="fill:rgb(51, 51, 51);animation-play-state:paused" ></path>
<path fill="#666" d="M16 81.3c16-2.8 42-3.7 68.8-4.4 1.2-2.4 2.2-4.9 3-7.4-30 .4-58.7 1.1-76 4.9.2 1.6.5 3.2.8 4.7.5 1.6 1.9 2.5 3.4 2.2z" style="fill:rgb(102, 102, 102);animation-play-state:paused" ></path>
<path fill="#a0c8d7" d="M49.4 63.1c2.7 0 5-1.7 5.7-4l3-10.1c1.6-5.4-2.2-10.9-8.2-12l-25.6-3.9c-.6-.1-1.3.1-1.7.4-4.4 3.8-7.3 8.4-9.7 13.7-2 4.5-2.3 9.1-2.8 14-.1 1 .8 1.9 2 1.9h37.3z" style="fill:rgb(160, 200, 215);animation-play-state:paused" ></path>
<path stroke-miterlimit="10" stroke-linecap="round" stroke-width="3.682" stroke="#fff" fill="none" d="M17.8 46.3c-.3.5-.5 1.1-.8 1.6" style="stroke:rgb(255, 255, 255);animation-play-state:paused" ></path>
<path stroke-miterlimit="10" stroke-linecap="round" stroke-width="3.682" stroke="#fff" fill="none" d="M24.8 36.6c-1.6 1.5-3 3.1-4.2 4.9" style="stroke:rgb(255, 255, 255);animation-play-state:paused" ></path>
<path fill="#666" opacity=".5" d="M63.9 39.4l-1.3-.2-6.8 23.6h7.6c2.4 0 4.5-1.5 5.1-3.6l2.7-9.1c1.4-4.9-1.9-9.8-7.3-10.7z" style="fill:rgb(102, 102, 102);animation-play-state:paused" ></path>
<circle fill="#fff" r="2.5" cy="46.6" cx="65" style="fill:rgb(255, 255, 255);animation-play-state:paused" ></circle>
<metadata xmlns:d="https://loading.io/stock/" style="animation-play-state:paused" ><d:name style="animation-play-state:paused" >helmet</d:name>
<d:tags style="animation-play-state:paused" >headwear,motocycle,scooter,protect,helmet,transportation</d:tags>
<d:license style="animation-play-state:paused" >by</d:license>
<d:slug style="animation-play-state:paused" >d5hqks</d:slug></metadata></g><!-- generated by https://loading.io/ --></svg>